<?xml version="1.0" encoding="UTF-8"?>
<!DOCTYPE svg PUBLIC "-//W3C//DTD SVG 1.1//EN" "http://www.w3.org/Graphics/SVG/1.1/DTD/svg11.dtd">
<!-- Creator: CorelDRAW X6 -->
<svg xmlns="http://www.w3.org/2000/svg" xml:space="preserve" width="3.94444in" height="2.33333in" version="1.1" style="shape-rendering:geometricPrecision; text-rendering:geometricPrecision; image-rendering:optimizeQuality; fill-rule:evenodd; clip-rule:evenodd"
viewBox="0 0 3944 2333"
 xmlns:xlink="http://www.w3.org/1999/xlink">
 <defs>
  <style type="text/css">
   <![CDATA[
    .fil1 {fill:#FEFEFE}
    .fil0 {fill:#FEFEFE;fill-rule:nonzero}
   ]]>
  </style>
 </defs>
 <g id="Layer_x0020_1">
  <metadata id="CorelCorpID_0Corel-Layer"/>
  <polygon class="fil0" points="1025,2104 1163,2104 1163,2152 1080,2152 1080,2199 1149,2199 1149,2246 1080,2246 1080,2330 1025,2330 "/>
  <path class="fil0" d="M1301 2283c34,0 61,-29 61,-67 0,-37 -27,-65 -61,-65 -34,0 -61,28 -61,65 0,38 27,67 61,67zm0 -182c68,0 118,50 118,115 0,66 -50,118 -118,118 -68,0 -118,-52 -118,-118 0,-65 50,-115 118,-115z"/>
  <path class="fil0" d="M1535 2206c18,0 29,-10 29,-28 0,-17 -6,-27 -34,-27l-19 0 0 55 24 0zm-79 -102l78 0c23,0 34,2 44,5 26,10 42,33 42,65 0,24 -11,50 -34,61l0 1c0,0 3,4 9,14l44 79 -61 0 -40 -76 -26 0 0 76 -55 0 0 -225z"/>
  <polygon class="fil0" points="1744,2104 1885,2104 1885,2152 1799,2152 1799,2193 1867,2193 1867,2240 1799,2240 1799,2282 1889,2282 1889,2330 1744,2330 "/>
  <path class="fil0" d="M1900 2104l60 0 40 128c4,14 9,36 9,36l1 0c0,0 4,-22 8,-36l40 -128 59 0 -79 225 -57 0 -80 -225z"/>
  <polygon class="fil0" points="2141,2104 2282,2104 2282,2152 2196,2152 2196,2193 2265,2193 2265,2240 2196,2240 2196,2282 2287,2282 2287,2330 2141,2330 "/>
  <path class="fil0" d="M2405 2206c18,0 29,-10 29,-28 0,-17 -6,-27 -34,-27l-19 0 0 55 24 0zm-79 -102l78 0c23,0 34,2 44,5 26,10 42,33 42,65 0,24 -11,50 -34,61l0 1c0,0 3,4 9,14l44 79 -61 0 -40 -76 -26 0 0 76 -55 0 0 -225z"/>
  <path class="fil0" d="M2584 2237l-74 -133 63 0 26 54c7,15 14,32 14,32l1 0c0,0 6,-17 14,-32l25 -54 63 0 -74 133 0 92 -55 0 0 -92z"/>
  <path class="fil0" d="M2823 2259c0,0 26,23 54,23 11,0 24,-4 24,-18 0,-27 -101,-26 -101,-95 0,-42 35,-69 80,-69 48,0 72,25 72,25l-23 45c0,0 -23,-20 -50,-20 -11,0 -24,5 -24,18 0,28 101,23 101,94 0,37 -29,70 -79,70 -53,0 -82,-32 -82,-32l29 -42z"/>
  <polygon class="fil0" points="3036,2152 2968,2152 2968,2104 3160,2104 3160,2152 3091,2152 3091,2330 3036,2330 "/>
  <path class="fil0" d="M3253 2156c0,0 -5,25 -9,39l-13 44 44 0 -13 -44c-4,-14 -9,-39 -9,-39l-1 0zm35 127l-70 0 -14 47 -57 0 77 -225 58 0 77 225 -57 0 -14 -47z"/>
  <path class="fil0" d="M3486 2101c58,0 87,30 87,30l-26 41c0,0 -23,-21 -55,-21 -47,0 -66,30 -66,64 0,43 30,68 65,68 26,0 46,-16 46,-16l0 -17 -32 0 0 -47 81 0 0 127 -46 0 0 -6c0,-5 0,-9 0,-9l-1 0c0,0 -22,20 -59,20 -58,0 -111,-43 -111,-117 0,-65 49,-116 118,-116z"/>
  <polygon class="fil0" points="3625,2104 3767,2104 3767,2152 3681,2152 3681,2193 3749,2193 3749,2240 3681,2240 3681,2282 3771,2282 3771,2330 3625,2330 "/>
  <path class="fil1" d="M3624 140c0,0 0,101 0,107 0,6 -6,9 -6,9 0,0 -34,10 -42,12 -8,2 -13,-5 -13,-5l0 -112c0,-5 7,-6 7,-6 0,0 41,-12 47,-14 6,-2 7,8 7,8zm81 -129c0,0 -150,46 -225,70 -75,23 -69,70 -69,70 0,0 -1,22 -1,54 -15,23 -50,39 -59,42 0,-4 0,-7 0,-8 0,-13 -8,-105 -77,-84 -68,21 -113,92 -143,100l-10 4 0 -56 -121 38 0 237c-53,64 -55,76 -74,81 -2,-78 3,-178 -2,-216 -8,-63 -74,-56 -93,-50 -19,6 -52,22 -49,32 3,10 24,26 24,26 0,0 2,245 1,291 -1,46 -6,55 -47,67 -41,13 -45,-38 -45,-38 0,0 -1,-159 -1,-216 -1,-56 18,-58 18,-58 48,-22 42,-41 40,-48 -2,-7 -11,-42 -94,-16 -83,26 -105,100 -126,135 -7,11 -36,26 -40,30 -3,-50 -37,-86 -72,-81 -82,13 -136,97 -173,109l-1 -493 -132 41c0,0 0,541 1,649 1,81 -51,95 -78,95 0,-101 0,-230 0,-230 0,0 4,-60 -56,-53 0,0 -81,23 -91,47 -10,24 15,24 15,24l1 375 -55 17 0 -386 -150 46 1 121c-24,37 -94,139 -107,155 -16,20 -18,-4 -18,-4l0 -231 -135 42c6,251 -41,295 -58,302 -11,4 -35,10 -42,9 0,-99 1,-228 1,-228 0,0 1,-59 -63,-52 0,0 -75,21 -85,45 -10,24 15,24 15,24l0 364 -55 17 3 -388 -148 46 -3 315c-90,95 -214,140 -214,140 -134,67 -410,48 -452,-169l562 -183 13 -72 -583 187c-25,-239 90,-346 206,-382 121,-37 312,17 312,17l59 -83c-181,-85 -390,-25 -390,-25 -212,66 -294,167 -345,304 -36,95 -41,186 -38,232l-142 44 -13 72 167 -52c121,358 371,307 501,267 145,-44 330,-173 357,-191l0 476 148 -46 0 -446 148 -49c0,0 40,-9 40,-60 0,-6 0,-27 0,-36l97 -48c0,0 4,61 22,78 30,28 63,-4 88,-27 20,-18 117,-161 153,-214l-1 626 150 -46 0 -447 151 -47c0,0 35,-12 35,-77 0,-5 0,-19 0,-27 38,-20 77,-52 77,-52l0 119 131 -40 0 -285c83,-111 102,-38 102,-38l1 288 143 -45c0,0 -1,-149 0,-256 36,-47 73,-24 73,-24l0 105c4,118 75,128 75,128 0,0 23,-5 130,-40 110,-36 128,-36 136,-95 1,-8 2,-21 2,-36 49,-14 59,-50 75,-64l-1 127 121 -39 0 -267c14,-14 39,-36 52,-46 22,-17 37,-8 37,-8 0,0 0,7 1,73 1,66 1,621 1,621 0,0 -2,42 31,32 32,-10 137,-44 137,-44 0,0 36,-11 48,-55 12,-45 26,-130 26,-130 0,0 4,-25 -18,-18 -22,7 -45,14 -45,14l-18 65 -21 6c0,0 0,-378 -2,-568 13,-14 47,-38 58,-48 1,61 -1,125 -1,171 1,103 85,82 85,82l274 -86c0,-65 0,-112 0,-112 -43,13 -98,32 -98,32 -7,22 -12,57 -72,75 -59,18 -36,-119 -36,-119l208 -64c0,0 1,-156 -1,-216 -2,-60 -65,-41 -65,-41z"/>
  <path class="fil1" d="M1534 577c45,-14 70,-62 56,-107 -14,-45 -62,-70 -107,-56 -45,14 -70,62 -56,107 14,45 62,70 107,56z"/>
  <path class="fil1" d="M3882 107c-29,0 -51,-22 -51,-53 0,-30 23,-52 51,-52 29,0 51,23 51,52 0,30 -23,53 -51,53zm64 -50l0 -5c-1,-35 -30,-61 -64,-61 -35,0 -64,27 -64,63 0,37 29,63 64,63 34,0 63,-26 64,-61z"/>
  <path class="fil1" d="M3869 50l0 -23 15 0c8,0 16,2 16,11 0,11 -8,12 -18,12l-13 0zm42 -11c0,-14 -9,-21 -26,-21l-28 0 0 73 11 0 0 -32 13 0 19 32 12 0 -21 -32c11,-1 19,-7 19,-20z"/>
 </g>
</svg>
