<?xml version="1.0" encoding="UTF-8" standalone="no"?>
<!-- Generator: Adobe Illustrator 21.0.0, SVG Export Plug-In . SVG Version: 6.00 Build 0)  -->

<svg
   xmlns:dc="http://purl.org/dc/elements/1.1/"
   xmlns:cc="http://creativecommons.org/ns#"
   xmlns:rdf="http://www.w3.org/1999/02/22-rdf-syntax-ns#"
   xmlns:svg="http://www.w3.org/2000/svg"
   xmlns="http://www.w3.org/2000/svg"
   xmlns:sodipodi="http://sodipodi.sourceforge.net/DTD/sodipodi-0.dtd"
   xmlns:inkscape="http://www.inkscape.org/namespaces/inkscape"
   version="1.1"
   id="Layer_1"
   x="0px"
   y="0px"
   viewBox="0 0 95.5 60"
   style="enable-background:new 0 0 95.5 60;"
   xml:space="preserve"
   sodipodi:docname="gibson-logo-cropped-white.svg"
   inkscape:version="0.92.4 (5da689c313, 2019-01-14)"><metadata
   id="metadata1097"><rdf:RDF><cc:Work
       rdf:about=""><dc:format>image/svg+xml</dc:format><dc:type
         rdf:resource="http://purl.org/dc/dcmitype/StillImage" /><dc:title></dc:title></cc:Work></rdf:RDF></metadata><defs
   id="defs1095" /><sodipodi:namedview
   pagecolor="#ffffff"
   bordercolor="#666666"
   borderopacity="1"
   objecttolerance="10"
   gridtolerance="10"
   guidetolerance="10"
   inkscape:pageopacity="0"
   inkscape:pageshadow="2"
   inkscape:window-width="1920"
   inkscape:window-height="1017"
   id="namedview1093"
   showgrid="false"
   inkscape:zoom="14.133333"
   inkscape:cx="47.75"
   inkscape:cy="30"
   inkscape:window-x="-8"
   inkscape:window-y="-8"
   inkscape:window-maximized="1"
   inkscape:current-layer="Layer_1" />
<g
   id="g1090"
   style="fill:#ffffff">
	<g
   id="g1084"
   style="fill:#ffffff">
		<ellipse
   cx="22.5"
   cy="11.3"
   rx="3.1"
   ry="3.1"
   id="ellipse1080"
   style="fill:#ffffff" />
		<path
   d="M17.4,18.2c0,0,0-4.4,0-6.6s-2.2-4.3-4-3.8c-1.7,0.5-8.9,2.7-9.2,2.9c-0.3,0.1-4.1,1.6-4.1,5.7l0.1,26.8    c0,0,0.2,2.7,3,2.6c0,0,0.8,0,2.1-0.7c0,0,3.2-1.8,3.5-1.9c0.2-0.1,2-0.7,2,1.8v15l5.3-1.7c0,0,0-12.9,0-13.3c0-0.9,0.7-5.4,3-7.3    c0.1-0.1,1.3-0.8,2.3,0.5c1,1.3,1.9,1.5,1.9,1.5s1.1,0.5,2-1.2c0.1-0.1,1.7-2.9,1.8-3c0.1-0.1,0.3-0.5,1-0.4c0,0,1.8-0.1,1.5,2.4    c0,0,8.2-2.5,8.8-2.9c0.1,0,3.2-1.3,5.1-4.2c0,0,0.6-0.8,1.3-0.8c0.1,0,1.9,0.1,1.4,2.4c0,0,7.9-2.4,8.3-2.6    c0.9-0.4,3.4-1.4,3.3-4.3c0-0.8-0.2-2.3-1.4-3.4c-0.1-0.1-5.4-4-5.5-4.1c-0.5-0.4-0.7-1.3,0.1-2.3c0,0,0.6-0.9,1.5-0.8    c0,0,0.7,0,1.7,1.3c0.1,0.1,0.9,1.2,1.4,1.3c0,0,0.4,0.1,1-0.4c1.3-1.2,2-1.2,2-1.2s1.9-0.6,1.9,1.7c0,0,0,4.2,0,4.6    c0,1,1.3,4.1,4.3,4c0,0,1-0.1,2-0.4l3.2-1c0,0,4.1-1.2,5.5-3.8c0,0,0.7-1.3,1.7-1.3c0,0,1.7-0.2,1.5,2.4l4.6-1.5V9    c0,0-0.1-1.3,1.4-1.3c1.5,0,1.5,1.2,1.5,1.2s0,22.6,0,23.1c0,0.7,0.7,2.7,2.9,2.6c0,0,6.3-0.1,6.3-5.4c0-0.4,0-2,0-2l-1.6,0.6v1.9    c0,0,0.1,1.3-1.4,1.4c-0.1,0-1.6,0-1.5-1.4V1.3c0,0-0.1-1.3-1.4-1.3c0,0-1.2-0.1-2.1,1.5c-0.9,1.6-1.3,2.9-2.5,2.9    c0,0-1.5,0.2-1.5-1.2V1.9l-4.7,1.5c0,0,0,5.2,0,5.4c0,1.3-1,8-2.8,8.1c-0.1,0-1.8,0.3-1.9-1.4c0,0,0-5.7,0-6.3    c0-0.9-0.6-3.4-2.7-3.1l-1.9,0.4c0,0,0,13.2,0,13.7s-0.2,2.4-2.4,2.5c-0.2,0-2.4-0.1-2.4-2.2v-8.9c0,0-0.1-1.6,1.5-1.7L66,7.5    c0,0-4.8,1.1-7.1,5.2c-0.3,0.3-0.8,0.6-1.2,0.6c-0.2,0-1.3-0.1-1.4-1.2c0-0.3,0-1.5,0-1.5l-7.9,2.6c0,0-3.1,1-3.1,4.2    c0,0,0,2.2,1.4,3.2l5.5,4.2c0,0,0.9,0.7,0.5,1.8c-0.1,0.2-0.7,1.5-2,1.5c-0.3,0-1.1,0-1.6-1.3c0,0-0.4-1.7-1.9-1.2    c0,0-2.7,0.9-2.9,1s-1.8,0.3-1.8-1.5c0,0,0-5.7,0-6.1s-0.6-3.1-2.7-3c0,0-1.3,0.1-2.4,0.6v2.7c0,0,1.5-0.2,1.5,1.7v9.3    c0,0,0.1,2.3-2.4,2.4c-2,0-2.4-2-2.4-2.2c0-1.3,0.1-29.6,0.1-29.6l-4.8,1.9l0.1,20.3c0,0-0.3,6.6-2.1,9.1    c-0.5,0.7-2.4,0.7-2.6-0.9V20.9l-4.7,1.5c0,0,0,3.5,0,4.2c0,0.7-0.7,9.1-3.1,9c-0.3,0-0.9-0.3-1-1.8l0-10.2l-4.6,1.6    c0,0,0,5.6-0.1,5.9c-0.1,1.8,0.1,9.9-5.3,9.9c0,0-1.3,0.1-1.3-1.5V16.8c0,0,0.2-2.6,2.1-3.5c0,0,2-0.7,2.5-0.9    c0.4-0.2,2.1,0,2.1,1.8V20L17.4,18.2z"
   id="path1082"
   style="fill:#ffffff" />
	</g>
	<g
   id="g1088"
   style="fill:#ffffff">
		<path
   d="M91.7,1.8c0-0.9,0.7-1.5,1.5-1.5s1.5,0.6,1.5,1.5S94,3.3,93.2,3.3S91.7,2.7,91.7,1.8z M93.2,0.6c-0.6,0-1.1,0.5-1.1,1.2    s0.5,1.2,1.1,1.2c0.6,0,1.1-0.5,1.1-1.2S93.8,0.6,93.2,0.6z M92.9,2.6h-0.3V1h0.6c0.4,0,0.6,0.1,0.6,0.5c0,0.3-0.2,0.4-0.4,0.4    l0.4,0.7h-0.4l-0.4-0.7h-0.2L92.9,2.6L92.9,2.6z M92.9,1.7h0.3c0.2,0,0.3-0.1,0.3-0.2s-0.1-0.2-0.3-0.2h-0.3L92.9,1.7L92.9,1.7z"
   id="path1086"
   style="fill:#ffffff" />
	</g>
</g>
</svg>