<?xml version="1.0" encoding="UTF-8" standalone="no"?>
<svg
   xmlns:dc="http://purl.org/dc/elements/1.1/"
   xmlns:cc="http://creativecommons.org/ns#"
   xmlns:rdf="http://www.w3.org/1999/02/22-rdf-syntax-ns#"
   xmlns:svg="http://www.w3.org/2000/svg"
   xmlns="http://www.w3.org/2000/svg"
   viewBox="0 0 636.26666 249.42667"
   height="249.42667"
   width="636.26666"
   xml:space="preserve"
   id="svg2"
   version="1.1"><metadata
     id="metadata8"><rdf:RDF><cc:Work
         rdf:about=""><dc:format>image/svg+xml</dc:format><dc:type
           rdf:resource="http://purl.org/dc/dcmitype/StillImage" /></cc:Work></rdf:RDF></metadata><defs
     id="defs6" /><g
     transform="matrix(1.3333333,0,0,-1.3333333,0,249.42667)"
     id="g10"><g
       transform="scale(0.1)"
       id="g12"><path
         id="path14"
         style="fill:#ffffff;fill-opacity:1;fill-rule:nonzero;stroke:none"
         d="m 501.422,1188.43 c 0,0 118.082,137.76 288.637,682.24 0,0 1165.601,-118.08 2667.831,-682.24 h -249.28 c 0,0 -1330.52,460.43 -2340.751,571.95 0,0 -69.75,-306.9 -241.796,-571.95 H 501.422" /><path
         id="path16"
         style="fill:#ffffff;fill-opacity:1;fill-rule:nonzero;stroke:none"
         d="m 4318.13,690.891 v 98.398 c 0,0 316.2,-130.949 448.33,-513.769 0,0 25.97,-54.282 -34.49,-63.579 0,0 -1046.24,116.25 -1776.28,97.649 0,0 -944.4,5.281 -2262.952,-309.59 l -228.515,443.09 124.64,1.351 162.746,-320.851 c 0,0 1187.521,276.57 2178.071,276.57 0,0 795.56,-0.648 1713.95,-85.922 0,0 -48.76,210.25 -325.5,376.653" /><path
         id="path18"
         style="fill:#ffffff;fill-opacity:1;fill-rule:nonzero;stroke:none"
         d="m 12.4453,1137.11 197.1637,-0.46 -1.464,-635.849 -197.1684,0.449 1.4687,635.86" /><path
         id="path20"
         style="fill:none;stroke:#ffffff;stroke-width:21.90699959;stroke-linecap:butt;stroke-linejoin:miter;stroke-miterlimit:4;stroke-dasharray:none;stroke-opacity:1"
         d="M 12.4453,1137.11 209.609,1136.65 208.145,500.801 10.9766,501.25 Z" /><path
         id="path22"
         style="fill:#ffffff;fill-opacity:1;fill-rule:nonzero;stroke:none"
         d="M 484.102,1136.02 235.805,873.496 449.363,500.238 l 218.114,-0.5 -200.661,354.742 290.852,280.91 -273.566,0.63" /><path
         id="path24"
         style="fill:none;stroke:#ffffff;stroke-width:21.90699959;stroke-linecap:butt;stroke-linejoin:miter;stroke-miterlimit:4;stroke-dasharray:none;stroke-opacity:1"
         d="M 484.102,1136.02 235.805,873.496 449.363,500.238 l 218.114,-0.5 -200.661,354.742 290.852,280.91 z" /><path
         id="path26"
         style="fill:#ffffff;fill-opacity:1;fill-rule:nonzero;stroke:none"
         d="m 699.73,859.488 -0.835,-359.828 184.843,-0.422 0.676,291.434 168.576,160.422 103.51,-0.239 -0.31,-134.933 -199.627,0.457 191.497,-318.367 207.03,-0.481 -110.48,185.098 42.51,-0.098 48.16,42.399 0.76,332.72 -70.38,70.71 -284.347,0.66 L 699.73,859.488" /><path
         id="path28"
         style="fill:none;stroke:#ffffff;stroke-width:21.90699959;stroke-linecap:butt;stroke-linejoin:miter;stroke-miterlimit:4;stroke-dasharray:none;stroke-opacity:1"
         d="m 699.73,859.488 -0.835,-359.828 184.843,-0.422 0.676,291.434 168.576,160.422 103.51,-0.239 -0.31,-134.933 -199.627,0.457 191.497,-318.367 207.03,-0.481 -110.48,185.098 42.51,-0.098 48.16,42.399 0.76,332.72 -70.38,70.71 -284.347,0.66 z" /><path
         id="path30"
         style="fill:#ffffff;fill-opacity:1;fill-rule:nonzero;stroke:none"
         d="m 1392.78,809.832 1.13,-311.773 182.99,-0.418 0.57,247.07 190.82,186.246 -0.4,-171.906 -51.76,0.129 -122.3,-132.809 173.75,-0.402 -0.29,-128.77 181.14,-0.418 1.47,635.849 -245.84,0.57 -311.28,-323.368" /><path
         id="path32"
         style="fill:none;stroke:#ffffff;stroke-width:21.90699959;stroke-linecap:butt;stroke-linejoin:miter;stroke-miterlimit:4;stroke-dasharray:none;stroke-opacity:1"
         d="m 1392.78,809.832 1.13,-311.773 182.99,-0.418 0.57,247.07 190.82,186.246 -0.4,-171.906 -51.76,0.129 -122.3,-132.809 173.75,-0.402 -0.29,-128.77 181.14,-0.418 1.47,635.849 -245.84,0.57 z" /><path
         id="path34"
         style="fill:#ffffff;fill-opacity:1;fill-rule:nonzero;stroke:none"
         d="m 2007.58,496.641 188.54,-0.442 0.67,291.442 90.79,94.058 178.86,-190.801 159.37,177.082 -0.86,-372.761 184.84,-0.43 1.47,635.851 -181.14,0.43 -168.62,-173.984 -171.46,187.084 -281.63,-287.701 -0.83,-359.828" /><path
         id="path36"
         style="fill:none;stroke:#ffffff;stroke-width:21.90699959;stroke-linecap:butt;stroke-linejoin:miter;stroke-miterlimit:4;stroke-dasharray:none;stroke-opacity:1"
         d="m 2007.58,496.641 188.54,-0.442 0.67,291.442 90.79,94.058 178.86,-190.801 159.37,177.082 -0.86,-372.761 184.84,-0.43 1.47,635.851 -181.14,0.43 L 2461.5,957.086 2290.04,1144.17 2008.41,856.469 Z" /><path
         id="path38"
         style="fill:#ffffff;fill-opacity:1;fill-rule:nonzero;stroke:none"
         d="m 2878.94,821.18 -0.76,-326.551 552.69,-1.27 0.39,169.43 -375.23,0.871 0.15,70.238 238.45,-0.546 137.11,136.468 -247.7,0.571 74.13,83.004 219.96,-0.508 0.41,176.213 -282.81,0.66 -316.79,-308.58" /><path
         id="path40"
         style="fill:none;stroke:#ffffff;stroke-width:21.90699959;stroke-linecap:butt;stroke-linejoin:miter;stroke-miterlimit:4;stroke-dasharray:none;stroke-opacity:1"
         d="m 2878.94,821.18 -0.76,-326.551 552.69,-1.27 0.39,169.43 -375.23,0.871 0.15,70.238 238.45,-0.546 137.11,136.468 -247.7,0.571 74.13,83.004 219.96,-0.508 0.41,176.213 -282.81,0.66 z" /><path
         id="path42"
         style="fill:#ffffff;fill-opacity:1;fill-rule:nonzero;stroke:none"
         d="m 3485.3,853.672 -0.84,-359.82 184.85,-0.43 0.68,291.43 168.57,160.425 103.52,-0.238 -0.32,-134.937 -199.63,0.457 191.5,-318.36 207.02,-0.48 -110.47,185.09 42.52,-0.098 48.15,42.41 0.76,332.709 -70.37,70.72 -284.36,0.65 -281.58,-269.528" /><path
         id="path44"
         style="fill:none;stroke:#ffffff;stroke-width:21.90699959;stroke-linecap:butt;stroke-linejoin:miter;stroke-miterlimit:4;stroke-dasharray:none;stroke-opacity:1"
         d="m 3485.3,853.672 -0.84,-359.82 184.85,-0.43 0.68,291.43 168.57,160.425 103.52,-0.238 -0.32,-134.937 -199.63,0.457 191.5,-318.36 207.02,-0.48 -110.47,185.09 42.52,-0.098 48.15,42.41 0.76,332.709 -70.37,70.72 -284.36,0.65 z" /><path
         id="path46"
         style="fill:#ffffff;fill-opacity:1;fill-rule:nonzero;stroke:none"
         d="M 2807.01,1126.66 3058.07,980.055" /><path
         id="path48"
         style="fill:none;stroke:#ffffff;stroke-width:36.9679985;stroke-linecap:butt;stroke-linejoin:miter;stroke-miterlimit:4;stroke-dasharray:none;stroke-opacity:1"
         d="M 2807.01,1126.66 3058.07,980.055" /><path
         id="path50"
         style="fill:#ffffff;fill-opacity:1;fill-rule:nonzero;stroke:none"
         d="M 3478.85,1124.2 3729.89,977.59" /><path
         id="path52"
         style="fill:none;stroke:#ffffff;stroke-width:36.9679985;stroke-linecap:butt;stroke-linejoin:miter;stroke-miterlimit:4;stroke-dasharray:none;stroke-opacity:1"
         d="M 3478.85,1124.2 3729.89,977.59" /><path
         id="path54"
         style="fill:#ffffff;fill-opacity:1;fill-rule:nonzero;stroke:none"
         d="M 1950.67,1128.05 2201.72,981.445" /><path
         id="path56"
         style="fill:none;stroke:#ffffff;stroke-width:36.9679985;stroke-linecap:butt;stroke-linejoin:miter;stroke-miterlimit:4;stroke-dasharray:none;stroke-opacity:1"
         d="M 1950.67,1128.05 2201.72,981.445" /><path
         id="path58"
         style="fill:#ffffff;fill-opacity:1;fill-rule:nonzero;stroke:none"
         d="M 1264.23,1123.08 1543.19,958.625" /><path
         id="path60"
         style="fill:none;stroke:#ffffff;stroke-width:36.9679985;stroke-linecap:butt;stroke-linejoin:miter;stroke-miterlimit:4;stroke-dasharray:none;stroke-opacity:1"
         d="M 1264.23,1123.08 1543.19,958.625" /><path
         id="path62"
         style="fill:#ffffff;fill-opacity:1;fill-rule:nonzero;stroke:none"
         d="M 212.738,1131.21 491.703,966.75" /><path
         id="path64"
         style="fill:none;stroke:#ffffff;stroke-width:36.9679985;stroke-linecap:butt;stroke-linejoin:miter;stroke-miterlimit:4;stroke-dasharray:none;stroke-opacity:1"
         d="M 212.738,1131.21 491.703,966.75" /><path
         id="path66"
         style="fill:#ffffff;fill-opacity:1;fill-rule:nonzero;stroke:none"
         d="m 4357,997 -0.04,-14.637 9.05,-0.019 c 7.98,-0.012 18.88,-1.371 18.91,6.605 0.01,7.453 -6.24,8 -13.29,8.016 z m 35.53,-50.363 -9.71,0.023 -14.97,27.168 -10.91,0.027 -0.06,-27.136 -8.51,0.019 0.14,58.792 24.74,-0.06 c 10.64,-0.02 20.21,-3.24 20.18,-15.607 -0.02,-11.57 -7.88,-15.808 -15.73,-16.058 z m -67.76,29.953 c -0.06,-24.61 19.85,-43.813 43.78,-43.863 23.95,-0.055 43.94,19.05 44,43.66 0.06,24.743 -19.84,43.813 -43.79,43.863 -23.95,0.05 -43.95,-18.92 -43.99,-43.66 z m -8.52,0.015 c 0.07,29.135 23.26,52.225 52.53,52.155 29.27,-0.07 52.35,-23.27 52.28,-52.393 -0.06,-29.129 -23.26,-52.226 -52.52,-52.156 -29.27,0.066 -52.36,23.266 -52.29,52.394" /><path
         id="path68"
         style="fill:#ffffff;fill-opacity:1;fill-rule:nonzero;stroke:none"
         d="m 748.535,1117.63 287.505,-168.298 18.78,31.848 -273.879,163.79 -32.406,-27.34" /><path
         id="path70"
         style="fill:#ffffff;fill-opacity:1;fill-rule:nonzero;stroke:none"
         d="m 4054.76,1133.85 209.49,-121.86 -1.92,-321.099 -38.34,15.058 1.92,285.5 -149.25,84.891 -21.9,57.51" /></g></g></svg>