<svg id="svg4598" xmlns="http://www.w3.org/2000/svg" viewBox="0 0 447 117"><defs><style>.cls-1,.cls-2{fill:#fff;fill-opacity:0.08;stroke:#fff;}.cls-1{stroke-width:2.69px;}</style></defs><title>Steinberger_White_revision-1</title><g id="layer1"><g id="g74"><path id="path2" class="cls-1" d="M434.06,88.49a8,8,0,0,0,8.11-8V12.08a8.05,8.05,0,0,0-8.11-8H12.74a8,8,0,0,0-8.1,8.05V80.45a8,8,0,0,0,8.1,8Z"/><path id="path4" class="cls-2" d="M417.41,76.28h-1.28V71.14h-1.87V70h5.1v1.12h-1.88v5.14Z"/><path id="path6" class="cls-2" d="M425.81,76.28h-1.27V71.06h0l-1.2,5.22h-1.28l-1.13-5.22h0v5.22h-1.2V70.09h1.88L422.74,75h0l1.12-4.92h1.88v6.19Z"/><path id="path8" class="cls-1" d="M29.69,54.16c.08,2.31,1.2,6.7,8.86,6.7,4.12,0,8.7-1,8.7-5.36,0-3.21-3.15-4.1-7.58-5.14l-4.5-1C28.42,47.75,22,46.26,22,37.18,22,32.56,24.44,24.44,38,24.44c12.76,0,16.21,8.27,16.28,13.33H45.9c-.23-1.86-.9-6.25-8.55-6.25-3.3,0-7.28,1.19-7.28,5,0,3.2,2.7,3.94,4.43,4.32l10.12,2.45C50.33,44.7,55.5,47,55.5,54.38c0,12.44-12.75,13.55-16.43,13.55-15.23,0-17.85-8.71-17.85-13.85h8.47Z"/><path id="path10" class="cls-1" d="M80.18,66.89h-8.7v-34H58.88v-7.3H92.79v7.3H80.18Z"/><path id="path12" class="cls-1" d="M128.8,32.86H106.67v8.71H127v7.3H106.67V59.59h23.1v7.3H98.11V25.48H128.8Z"/><path id="path14" class="cls-1" d="M145.08,66.89h-8.7V25.48h8.7Z"/><path id="path16" class="cls-1" d="M177.71,25.56h8.11V67h-8.71l-17-29.5h-.15V67h-8.1V25.56H161l16.58,28.82h.15Z"/><path id="path18" class="cls-1" d="M193.24,25.56H213.5c10.2,0,12.83,6.33,12.83,10.57,0,6-3.38,7.6-5.1,8.49,5.1,1.94,6.45,6,6.45,10.06a12.28,12.28,0,0,1-3.6,8.56c-2.4,2.31-4.66,3.73-13.21,3.73H193.24Zm8.4,34.18H212.3c4.2,0,6.67-1.86,6.67-6,0-3.65-3.15-5-6.3-5h-11.1v11Zm0-18h10.21c3.45,0,6.15-1.34,6.15-4.62s-2.4-4.47-6.38-4.47h-10Z"/><path id="path20" class="cls-1" d="M264.89,32.86H242.76v8.71h20.33v7.3H242.76V59.59h23.1v7.3H234.2V25.48h30.69Z"/><path id="path22" class="cls-1" d="M270.89,25.56H292c11.1,0,13.13,8.12,13.13,11.69,0,4.54-2.33,8.49-6.45,9.83,3.45,1.49,5.25,2.76,5.25,10.5,0,6,0,7.52,1.88,8.27V67h-9.61c-.6-1.94-.9-4.1-.9-8.34,0-5.67-.37-7.82-6.82-7.82h-9V67h-8.55Zm18.76,18.17c4.5,0,6.75-1.56,6.75-5.66,0-2.16-1-5.44-6.08-5.44H279.44v11.1Z"/><path id="path24" class="cls-1" d="M330.38,44.62h17.41V66.89H342l-.9-5.21c-2.17,2.53-5.4,6.25-13,6.25-10.05,0-19.13-7.14-19.13-21.67,0-11.32,6.3-22,20.41-21.89,12.75,0,17.85,8.26,18.3,13.92H339c0-1.64-2.93-6.77-9.08-6.77S318,35.76,318,46.41c0,11.32,6.23,14.23,12.16,14.23,1.95,0,8.33-.75,10.13-9.09h-9.68V44.62Z"/><path id="path26" class="cls-1" d="M384.55,32.86H362.42v8.71h20.33v7.3H362.42V59.59h23.1v7.3H353.86V25.48h30.69Z"/><path id="path28" class="cls-1" d="M390.63,25.56h21.08c11.1,0,13.13,8.12,13.13,11.69,0,4.54-2.33,8.49-6.46,9.83,3.45,1.49,5.26,2.76,5.26,10.5,0,6,0,7.52,1.87,8.27V67h-9.6c-.6-1.94-.9-4.1-.9-8.34,0-5.67-.38-7.82-6.83-7.82h-9V67h-8.55Zm18.68,18.17c4.5,0,6.75-1.56,6.75-5.66,0-2.16-1-5.44-6.08-5.44H399.1v11.1Z"/><g id="g72"><path id="path30" class="cls-2" d="M53.4,108.38a4.32,4.32,0,0,0,3.68,1.86c1.5,0,3.45-1,3.45-2.83,0-4-8.48-1.49-8.48-8.12,0-2,1.73-4.77,5.85-4.77a5.94,5.94,0,0,1,5,1.94L61,98.17a3.66,3.66,0,0,0-3.08-1.49c-2.55,0-3.37,1.57-3.37,2.61,0,4.32,8.47,1.71,8.47,7.89,0,3.28-2.7,5.29-6,5.29a6.52,6.52,0,0,1-5.47-2.38Z"/><path id="path32" class="cls-2" d="M70.81,97.06H65.25V94.9H78.68v2.16H73.13V112H70.81Z"/><path id="path34" class="cls-2" d="M82.88,105.77l3.23-7.9h.08l3.22,7.9ZM77.63,112h2.7l1.73-4.24h8.18L92,112h2.7l-7.35-17h-2.1Z"/><path id="path36" class="cls-2" d="M99.16,97.06H93.61V94.9H107v2.16h-5.55V112H99.16Z"/><path id="path38" class="cls-2" d="M110.34,94.9h11.11v2.16h-8.78v5.06h8.18v2.16h-8.18v5.51h9.23V112H110.34Z"/><path id="path40" class="cls-2" d="M141.55,110.24c-3.9,0-6.45-3.06-6.45-6.78s2.55-6.78,6.45-6.78,6.45,3.06,6.45,6.78S145.45,110.24,141.55,110.24Zm0,2.16a8.94,8.94,0,1,0-8.93-8.94A8.66,8.66,0,0,0,141.55,112.4Z"/><path id="path42" class="cls-2" d="M154.76,94.9h10.8v2.16h-8.48v5.36H165v2.16h-7.88V112h-2.32Z"/><path id="path44" class="cls-2" d="M180.71,97.06h-5.55V94.9h13.43v2.16H183V112h-2.33Z"/><path id="path46" class="cls-2" d="M192,94.9h2.32V102h8.93V94.9h2.33v17h-2.33v-7.82h-8.93V112H192Z"/><path id="path48" class="cls-2" d="M210.8,94.9h11.1v2.16h-8.78v5.06h8.18v2.16h-8.18v5.51h9.23V112H210.8Z"/><path id="path50" class="cls-2" d="M234.13,94.9h2.32v17h-2.32Z"/><path id="path52" class="cls-2" d="M241.71,94.9h3.07l9.46,14h.07v-14h2.33v17h-2.93l-9.6-14H244v14h-2.32Z"/><path id="path54" class="cls-2" d="M262.41,108.38a4.32,4.32,0,0,0,3.68,1.86c1.5,0,3.45-1,3.45-2.83,0-4-8.48-1.49-8.48-8.12,0-2,1.73-4.77,5.85-4.77a6,6,0,0,1,5,1.94L270,98.17a3.66,3.66,0,0,0-3.08-1.49c-2.55,0-3.37,1.57-3.37,2.61,0,4.32,8.48,1.71,8.48,7.89,0,3.28-2.71,5.29-6,5.29a6.52,6.52,0,0,1-5.47-2.38Z"/><path id="path56" class="cls-2" d="M279.89,97.06h-5.55V94.9h13.43v2.16h-5.55V112h-2.33Z"/><path id="path58" class="cls-2" d="M293.4,96.91h3.07c1.88,0,3.68.44,3.68,2.75s-1.88,2.76-3.68,2.76H293.4Zm-2.33,15h2.33v-7.52H296l4.35,7.52h2.93l-4.88-7.82a4.54,4.54,0,0,0,4.2-4.54c0-2.16-1.12-4.77-5.55-4.77h-6Z"/><path id="path60" class="cls-2" d="M308.78,94.9v10.5c0,2.08,1.05,4.84,4.35,4.84s4.35-2.76,4.35-4.84V94.9h2.32v10.79a6.68,6.68,0,1,1-13.35,0V94.9Z"/><path id="path62" class="cls-2" d="M324.61,94.9h3.45l5.47,12.95h.08L339,94.9h3.45v17h-2.32V98h-.08l-5.78,14h-1.57l-5.78-14h-.07v14h-2.33v-17Z"/><path id="path64" class="cls-2" d="M347.64,94.9h11.1v2.16H350v5.06h8.18v2.16H350v5.51h9.23V112H347.64Z"/><path id="path66" class="cls-2" d="M363.32,94.9h3.07l9.46,14h.07v-14h2.33v17h-2.93l-9.6-14h-.08v14h-2.32Z"/><path id="path68" class="cls-2" d="M387.1,97.06h-5.55V94.9H395v2.16h-5.55V112H387.1Z"/><path id="path70" class="cls-2" d="M395.2,110.54a1.58,1.58,0,1,1,1.58,1.56A1.58,1.58,0,0,1,395.2,110.54Z"/></g></g></g></svg>